<svg xmlns="http://www.w3.org/2000/svg" xmlns:xlink="http://www.w3.org/1999/xlink" width="36" height="30" viewBox="0 0 36 30">
  <metadata><?xpacket begin="﻿" id="W5M0MpCehiHzreSzNTczkc9d"?>
<x:xmpmeta xmlns:x="adobe:ns:meta/" x:xmptk="Adobe XMP Core 5.6-c138 79.159824, 2016/09/14-01:09:01        ">
   <rdf:RDF xmlns:rdf="http://www.w3.org/1999/02/22-rdf-syntax-ns#">
      <rdf:Description rdf:about=""/>
   </rdf:RDF>
</x:xmpmeta>
                                                                                                    
                                                                                                    
                                                                                                    
                                                                                                    
                                                                                                    
                                                                                                    
                                                                                                    
                                                                                                    
                                                                                                    
                                                                                                    
                                                                                                    
                                                                                                    
                                                                                                    
                                                                                                    
                                                                                                    
                                                                                                    
                                                                                                    
                                                                                                    
                                                                                                    
                                                                                                    
                           
<?xpacket end="w"?></metadata>
<defs>
    <style>
      .cls-1 {
        fill-rule: evenodd;
        filter: url(#filter);
      }
    </style>
    <filter id="filter" x="373" y="3772" width="36" height="30" filterUnits="userSpaceOnUse">
      <feFlood result="flood" flood-color="#fff"/>
      <feComposite result="composite" operator="in" in2="SourceGraphic"/>
      <feBlend result="blend" in2="SourceGraphic"/>
    </filter>
  </defs>
  <path id="icon-twitter" class="cls-1" d="M408.007,3772.55a14.551,14.551,0,0,1-4.693,1.84,7.292,7.292,0,0,0-5.389-2.39,7.48,7.48,0,0,0-7.386,7.57,7.747,7.747,0,0,0,.191,1.73,20.792,20.792,0,0,1-15.222-7.92,7.724,7.724,0,0,0,2.286,10.12,7.314,7.314,0,0,1-3.345-.95v0.09a7.541,7.541,0,0,0,5.923,7.43,7.337,7.337,0,0,1-1.945.27,7.094,7.094,0,0,1-1.391-.14,7.416,7.416,0,0,0,6.9,5.26,14.588,14.588,0,0,1-9.171,3.24,17.036,17.036,0,0,1-1.762-.1,20.6,20.6,0,0,0,11.321,3.4c13.584,0,21.012-11.54,21.012-21.55l-0.024-.99a14.959,14.959,0,0,0,3.691-3.91,14.448,14.448,0,0,1-4.24,1.19A7.546,7.546,0,0,0,408.007,3772.55Z" transform="translate(-373 -3772)"/>
</svg>
